<svg fill="none" height="48" viewBox="0 0 48 48" width="48" xmlns="http://www.w3.org/2000/svg"><path clip-rule="evenodd" d="m15 18c0-.5523.4477-1 1-1h3c.4436 0 .8342.2923.9594.7178l2.2888 7.7822h6.971l1-4h-6.2192c-.5523 0-1-.4477-1-1s.4477-1 1-1h7.5c.3079 0 .5987.1419.7882.3846s.2566.5592.1819.8579l-1.5 6c-.1112.4452-.5112.7575-.9701.7575h-8.5c-.4436 0-.8342-.2923-.9594-.7178l-2.2888-7.7822h-2.2518c-.5523 0-1-.4477-1-1zm8 12c0 1.1046-.8954 2-2 2s-2-.8954-2-2 .8954-2 2-2 2 .8954 2 2zm7 2c1.1046 0 2-.8954 2-2s-.8954-2-2-2-2 .8954-2 2 .8954 2 2 2z" fill="#222" fill-rule="evenodd"/></svg>